<svg xmlns="http://www.w3.org/2000/svg" version="1.1" xmlns:xlink="http://www.w3.org/1999/xlink" width="400" height="400"><svg xmlns="http://www.w3.org/2000/svg" version="1.1" viewBox="100 40 400 400" preserveAspectRatio="xMidYMid meet">
  <rect x="100" y="40" width="400" height="400" fill="black"></rect>
  <path d="M0 0 C0 25.74 0 51.48 0 78 C-7.26 78 -14.52 78 -22 78 C-22 59.52 -22 41.04 -22 22 C-22.66 22.33 -23.32 22.66 -24 23 C-25.84984397 23.29893479 -27.70523771 23.56378027 -29.5625 23.8125 C-55.69302887 27.77951098 -79.07296539 37.27311117 -99 55 C-99.83789062 55.70640625 -100.67578125 56.4128125 -101.5390625 57.140625 C-126.27905388 78.43386836 -140.33041264 109.14287315 -145 141 C-145.94633553 158.15934744 -145.86087307 175.41339744 -141 192 C-140.75862305 192.825 -140.51724609 193.65 -140.26855469 194.5 C-133.59989162 216.51078226 -122.75435976 234.27486103 -107 251 C-106.02546875 252.08861328 -106.02546875 252.08861328 -105.03125 253.19921875 C-94.00021633 265.01515289 -79.7233001 273.58682815 -65 280 C-64.35740234 280.28069336 -63.71480469 280.56138672 -63.05273438 280.85058594 C-37.24662646 291.86032745 -10.31243849 293.1292722 17 288 C18.59521484 287.70996094 18.59521484 287.70996094 20.22265625 287.4140625 C54.02084431 280.09349856 82.94986203 257.92277024 101.8125 229.4765625 C108.22165938 219.47215912 112.5849551 208.92774968 116.375 197.6875 C116.70894775 196.6977417 117.04289551 195.7079834 117.38696289 194.68823242 C121.32238098 182.55191735 122.37738026 171.11517265 122.3125 158.4375 C122.31034485 157.68299561 122.3081897 156.92849121 122.30596924 156.15112305 C122.25427429 144.88341696 121.93036871 133.93626555 119 123 C118.81727539 122.29665527 118.63455078 121.59331055 118.44628906 120.86865234 C112.32661379 98.2238441 99.96102864 78.94005084 84 62 C83.17628906 61.09701172 83.17628906 61.09701172 82.3359375 60.17578125 C67.24874278 44.23389324 47.52763257 34.82068303 27 28 C25.02 27.34 23.04 26.68 21 26 C21 18.74 21 11.48 21 4 C27.60690774 4.82586347 32.81752157 5.97330775 39 8.0625 C40.37877319 8.527771 40.37877319 8.527771 41.78540039 9.00244141 C59.56875964 15.18701795 75.69935055 24.76262833 90 37 C90.80824219 37.68578125 91.61648438 38.3715625 92.44921875 39.078125 C121.28354432 64.24591937 141.31671405 100.65265848 145 139 C146.89822919 179.45191861 139.46470002 216.82939322 115 250 C114.31679688 250.92683594 113.63359375 251.85367188 112.9296875 252.80859375 C88.42061658 284.16715788 50.80799062 307.49632885 10.90625 312.53515625 C2.8161559 313.31045693 -5.31711124 313.29057156 -13.4375 313.3125 C-14.21535858 313.31626648 -14.99321716 313.32003296 -15.79464722 313.32391357 C-56.58189582 313.42394427 -94.2345894 295.36697079 -123 267 C-139.24559241 250.75995594 -151.21418119 231.58692037 -159 210 C-159.67869141 208.14568359 -159.67869141 208.14568359 -160.37109375 206.25390625 C-173.23536014 169.56975194 -170.93785199 126.29617487 -154.12109375 91.234375 C-153.41950647 89.82020277 -152.71253421 88.40868833 -152 87 C-151.48397217 85.97616211 -151.48397217 85.97616211 -150.95751953 84.93164062 C-141.69124811 66.87429119 -128.8517172 49.77559725 -113 37 C-112.05640625 36.23042969 -111.1128125 35.46085937 -110.140625 34.66796875 C-77.4038688 8.4449249 -41.68301897 0 0 0 Z " fill="#FFFFFF" transform="translate(311,83)"></path>
  <path d="M0 0 C26.73 0 53.46 0 81 0 C80.19556303 4.02218486 79.28530298 7.0208651 77.71484375 10.73828125 C77.04291992 12.33833008 77.04291992 12.33833008 76.35742188 13.97070312 C75.88884766 15.07349609 75.42027344 16.17628906 74.9375 17.3125 C74.46505859 18.43462891 73.99261719 19.55675781 73.50585938 20.71289062 C72.34139806 23.47701597 71.17124875 26.23874387 70 29 C74.95 29 79.9 29 85 29 C84.06031699 33.69841506 82.56582983 37.60266645 80.62109375 41.92578125 C80.28956802 42.67337204 79.9580423 43.42096283 79.61647034 44.19120789 C78.56155297 46.56711335 77.49964087 48.93981629 76.4375 51.3125 C75.71893648 52.92752776 75.00083235 54.54276 74.28320312 56.15820312 C72.52744776 60.10785704 70.76541458 64.05465467 69 68 C71.78456488 65.22934019 74.55298793 62.4527988 77.234375 59.58203125 C77.80365723 58.97278809 78.37293945 58.36354492 78.95947266 57.73583984 C79.55034668 57.1011377 80.1412207 56.46643555 80.75 55.8125 C81.37052246 55.14686035 81.99104492 54.4812207 82.63037109 53.79541016 C86.70473287 49.41586862 90.7301351 44.99654033 94.71484375 40.53515625 C97.99353959 36.89776548 101.32544286 33.30997947 104.66455078 29.72802734 C108.22137052 25.89640079 111.59033486 21.97794266 115 18 C108.73 17.67 102.46 17.34 96 17 C97 12 97 12 102 0 C124.77 0 147.54 0 171 0 C171 31.68 171 63.36 171 96 C160.11 96 149.22 96 138 96 C138 113.16 138 130.32 138 148 C130.74 148 123.48 148 116 148 C116 130.84 116 113.68 116 96 C95.87 96 75.74 96 55 96 C55 112.83 55 129.66 55 147 C48.07 147 41.14 147 34 147 C34 130.17 34 113.34 34 96 C22.78 96 11.56 96 0 96 C0 64.32 0 32.64 0 0 Z " fill="#FFFFFF" transform="translate(214,177)"></path>
</svg><style>@media (prefers-color-scheme: light) { :root { filter: contrast(1) brightness(1); } }
@media (prefers-color-scheme: dark) { :root { filter: none; } }
</style></svg>